<svg xmlns="http://www.w3.org/2000/svg" xmlns:xlink="http://www.w3.org/1999/xlink" xmlns:serif="http://www.serif.com/" width="100%" height="100%" viewBox="0 0 2441 796" xml:space="preserve" style="fill-rule:evenodd;clip-rule:evenodd;stroke-linejoin:round;stroke-miterlimit:2;">    <g transform="matrix(1,0,0,1,-16547.8,1.13687e-13)">        <g transform="matrix(1,0,0,0.350485,2764.28,783.823)">            <rect id="Export-2" serif:id="Export 2" x="13783.6" y="-2236.39" width="2440.43" height="2270.85" style="fill:none;"></rect>            <clipPath id="_clip1">                <rect id="Export-21" serif:id="Export 2" x="13783.6" y="-2236.39" width="2440.43" height="2270.85"></rect>            </clipPath>            <g clip-path="url(#_clip1)">                <g transform="matrix(3.82502,0,0,29.0378,-19932.7,-54175.4)">                    <g transform="matrix(0.487699,0,0,0.183295,3484.18,1262.15)">                        <path d="M11187.8,3180.88C11163.7,3191.99 11132.1,3197.54 11093.2,3197.54C11042.5,3197.54 11002.6,3183.37 10973.5,3155.02C10944.4,3126.68 10929.9,3088.91 10929.9,3041.71C10929.9,2991.45 10946.2,2950.68 10978.9,2919.41C11011.6,2888.15 11054,2872.51 11106.1,2872.51C11138.4,2872.51 11165.7,2876.39 11187.8,2884.13L11187.8,2952.29C11165.7,2939.72 11140.4,2933.44 11112.1,2933.44C11081.1,2933.44 11056,2942.72 11036.9,2961.28C11017.9,2979.83 11008.3,3004.96 11008.3,3036.67C11008.3,3067.06 11017.3,3091.28 11035.3,3109.33C11053.3,3127.37 11077.5,3136.39 11108,3136.39C11137.1,3136.39 11163.7,3129.67 11187.8,3116.23L11187.8,3180.88ZM12209.1,3180.88C12185,3191.99 12153.5,3197.54 12114.6,3197.54C12063.8,3197.54 12023.9,3183.37 11994.8,3155.02C11965.7,3126.68 11951.2,3088.91 11951.2,3041.71C11951.2,2991.45 11967.6,2950.68 12000.2,2919.41C12032.9,2888.15 12075.3,2872.51 12127.5,2872.51C12159.8,2872.51 12187,2876.39 12209.1,2884.13L12209.1,2952.29C12187,2939.72 12161.8,2933.44 12133.5,2933.44C12102.4,2933.44 12077.3,2942.72 12058.3,2961.28C12039.2,2979.83 12029.7,3004.96 12029.7,3036.67C12029.7,3067.06 12038.6,3091.28 12056.6,3109.33C12074.6,3127.37 12098.9,3136.39 12129.3,3136.39C12158.4,3136.39 12185,3129.67 12209.1,3116.23L12209.1,3180.88ZM11933.2,3192.17L11858.7,3192.17L11858.7,2877.88L11933.2,2877.88L11933.2,3192.17ZM11360.9,3197.5C11316,3196.4 11279.2,3181.77 11250.6,3153.62C11220.7,3124.32 11205.8,3086.15 11205.8,3039.1C11205.8,2989.43 11221,2949.24 11251.3,2918.56C11279.3,2890.12 11315.9,2874.86 11360.9,2872.78L11360.9,2933.83C11338.8,2935.71 11320.9,2944.9 11307.3,2961.41C11291.9,2980.04 11284.2,3004.69 11284.2,3035.38C11284.2,3066.5 11291.9,3091.12 11307.3,3109.24C11321.3,3125.66 11339.1,3134.64 11360.9,3136.18L11360.9,3197.5ZM11374.9,2872.56C11420.6,2873.21 11457.7,2887.88 11486.2,2916.59C11515.4,2945.96 11529.9,2984.68 11529.9,3032.75C11529.9,3082.13 11514.8,3121.95 11484.6,3152.2C11456.2,3180.66 11419.6,3195.73 11374.9,3197.41L11374.9,3136.18C11397.2,3134.68 11415.2,3125.95 11428.9,3110.01C11444,3092.4 11451.5,3067.96 11451.5,3036.69C11451.5,3004.11 11444.2,2978.76 11429.6,2960.64C11416,2943.8 11397.8,2934.78 11374.9,2933.6L11374.9,2872.56ZM11635.4,3192.17L11635.4,3134.75L11659.1,3134.75C11691.3,3134.75 11716.6,3125.54 11734.9,3107.13C11753.3,3088.72 11762.4,3063.66 11762.4,3031.96C11762.4,3002.01 11753.4,2978.45 11735.2,2961.28C11717,2944.11 11691.5,2935.52 11658.6,2935.52L11635.4,2935.52L11635.4,2877.88L11664.9,2877.88C11782.1,2877.88 11840.7,2928.95 11840.7,3031.08C11840.7,3080.03 11824.7,3119.12 11792.7,3148.34C11760.7,3177.56 11718.1,3192.17 11664.9,3192.17L11635.4,3192.17ZM11622.3,2877.88L11622.3,3192.17L11547.9,3192.17L11547.9,2877.88L11622.3,2877.88Z" style="fill:rgb(16,106,179);stroke:black;stroke-width:0.17px;"></path>                    </g>                    <g transform="matrix(1.05876,0,0,0.395028,8540.07,1560.84)">                        <g transform="matrix(1.17835,0,0,0.95,-45.7764,38.7049)">                            <g transform="matrix(53.8404,0,0,53.8404,775.3,774.098)">                            </g>                            <text x="256.663px" y="774.098px" style="font-family:'SegoeUI', 'Segoe UI', sans-serif;font-size:53.84px;fill:rgb(16,106,179);">I<tspan x="293.065px 355.415px 417.764px 479.314px 532.151px 585.674px 635.957px 672.36px 735.025px " y="774.098px 774.098px 774.098px 774.098px 774.098px 774.098px 774.098px 774.098px 774.098px ">NNOVATION</tspan></text>                        </g>                    </g>                </g>            </g>        </g>    </g></svg>